<svg xmlns="http://www.w3.org/2000/svg" viewBox="0 0 460 150" role="img" aria-label="Tuku"><title>Tuku</title><g transform="translate(0 6) scale(0.135)"><rect width="1024" height="1024" rx="232" fill="#167A3A"/><g transform="translate(512 600) rotate(0) scale(1.64)"><path d="M-52 -128 C-70 -190 -112 -232 -158 -236" fill="none" stroke="#4CC764" stroke-width="20" stroke-linecap="round"/><path d="M52 -128 C70 -190 112 -232 158 -236" fill="none" stroke="#4CC764" stroke-width="20" stroke-linecap="round"/><circle cx="-162" cy="-236" r="28" fill="#FFC83A"/><circle cx="162" cy="-236" r="28" fill="#FFC83A"/><ellipse cx="0" cy="0" rx="196" ry="168" fill="#4CC764"/><ellipse cx="-128" cy="58" rx="30" ry="20" fill="#FFAD7A"/><ellipse cx="128" cy="58" rx="30" ry="20" fill="#FFAD7A"/><circle cx="-74" cy="-22" r="64" fill="#FFFFFF"/><circle cx="-58" cy="-36" r="33" fill="#14231A"/><circle cx="-69" cy="-48" r="11" fill="#FFFFFF"/><circle cx="74" cy="-22" r="64" fill="#FFFFFF"/><circle cx="90" cy="-36" r="33" fill="#14231A"/><circle cx="79" cy="-48" r="11" fill="#FFFFFF"/><path d="M-52 66 Q0 108 52 66" fill="none" stroke="#14231A" stroke-width="15" stroke-linecap="round"/></g></g><g transform="translate(160 8) scale(0.86)"><path fill="none" stroke="#167A3A" stroke-width="24" stroke-linecap="round" stroke-linejoin="round" d="M44 46 V102 Q44 126 68 126"/><path fill="none" stroke="#167A3A" stroke-width="24" stroke-linecap="round" stroke-linejoin="round" d="M22 72 H70"/><path fill="none" stroke="#167A3A" stroke-width="8" stroke-linecap="round" d="M40 38 C35 24 26 15 13 13"/><path fill="none" stroke="#167A3A" stroke-width="8" stroke-linecap="round" d="M48 38 C53 24 62 15 75 13"/><circle cx="12" cy="13" r="8" fill="#FFC83A"/><circle cx="76" cy="13" r="8" fill="#FFC83A"/><path fill="none" stroke="#167A3A" stroke-width="24" stroke-linecap="round" stroke-linejoin="round" d="M104 72 V100 Q104 126 131 126 Q158 126 158 100 V72"/><path fill="none" stroke="#167A3A" stroke-width="24" stroke-linecap="round" stroke-linejoin="round" d="M158 72 V126"/><path fill="none" stroke="#167A3A" stroke-width="24" stroke-linecap="round" stroke-linejoin="round" d="M196 46 V126"/><path fill="none" stroke="#167A3A" stroke-width="24" stroke-linecap="round" stroke-linejoin="round" d="M236 72 L204 100"/><path fill="none" stroke="#167A3A" stroke-width="24" stroke-linecap="round" stroke-linejoin="round" d="M212 98 L238 126"/><path fill="none" stroke="#167A3A" stroke-width="24" stroke-linecap="round" stroke-linejoin="round" d="M268 72 V100 Q268 126 295 126 Q322 126 322 100 V72"/><path fill="none" stroke="#167A3A" stroke-width="24" stroke-linecap="round" stroke-linejoin="round" d="M322 72 V126"/></g></svg>
